<svg xmlns="http://www.w3.org/2000/svg" xmlns:xlink="http://www.w3.org/1999/xlink" width="1200" zoomAndPan="magnify" viewBox="0 0 900 299.999988" height="400" preserveAspectRatio="xMidYMid meet" version="1.0">
  <defs>
    <g/>
    <clipPath id="0aede09146">
      <path d="M 31.496094 54.855469 L 137 54.855469 L 137 106.605469 L 31.496094 106.605469 Z M 31.496094 54.855469 " clip-rule="nonzero"/>
    </clipPath>
  </defs>
  <g fill="#ff914d" fill-opacity="1">
    <g transform="translate(210.088484, 212.175719)">
      <g>
        <path d="M 87.421875 0 L 78.796875 -28.625 L 38.625 -28.625 L 30 0 L 3.453125 0 L 43.109375 -120.34375 L 75.515625 -120.34375 L 114.65625 0 Z M 58.96875 -96.5625 L 58.109375 -96.5625 L 44.828125 -50.859375 L 72.421875 -50.859375 Z M 58.96875 -96.5625 "/>
      </g>
    </g>
  </g>
  <g fill="#ff914d" fill-opacity="1">
    <g transform="translate(328.185892, 212.175719)">
      <g>
        <path d="M 38.109375 -120.34375 L 38.109375 -46.546875 C 38.109375 -38.046875 39.773438 -31.695312 43.109375 -27.5 C 46.441406 -23.300781 52.015625 -21.203125 59.828125 -21.203125 C 67.648438 -21.203125 73.226562 -23.300781 76.5625 -27.5 C 79.894531 -31.695312 81.5625 -38.046875 81.5625 -46.546875 L 81.5625 -120.34375 L 107.078125 -120.34375 L 107.078125 -49.3125 C 107.078125 -40.457031 106.242188 -32.78125 104.578125 -26.28125 C 102.910156 -19.789062 100.175781 -14.445312 96.375 -10.25 C 92.582031 -6.0625 87.695312 -2.960938 81.71875 -0.953125 C 75.75 1.054688 68.453125 2.0625 59.828125 2.0625 C 51.210938 2.0625 43.914062 1.054688 37.9375 -0.953125 C 31.957031 -2.960938 27.070312 -6.0625 23.28125 -10.25 C 19.488281 -14.445312 16.757812 -19.789062 15.09375 -26.28125 C 13.425781 -32.78125 12.59375 -40.457031 12.59375 -49.3125 L 12.59375 -120.34375 Z M 38.109375 -120.34375 "/>
      </g>
    </g>
  </g>
  <g fill="#ff914d" fill-opacity="1">
    <g transform="translate(447.834955, 212.175719)">
      <g>
        <path d="M 63.453125 -97.078125 L 63.453125 0 L 37.25 0 L 37.25 -97.078125 L 4.65625 -97.078125 L 4.65625 -120.34375 L 96.03125 -120.34375 L 96.03125 -97.078125 Z M 63.453125 -97.078125 "/>
      </g>
    </g>
  </g>
  <g fill="#ff914d" fill-opacity="1">
    <g transform="translate(548.519486, 212.175719)">
      <g>
        <path d="M 61.546875 2.0625 C 53.617188 2.0625 46.378906 0.742188 39.828125 -1.890625 C 33.273438 -4.535156 27.695312 -8.472656 23.09375 -13.703125 C 18.5 -18.929688 14.9375 -25.425781 12.40625 -33.1875 C 9.882812 -40.945312 8.625 -49.941406 8.625 -60.171875 C 8.625 -70.398438 9.882812 -79.394531 12.40625 -87.15625 C 14.9375 -94.914062 18.5 -101.410156 23.09375 -106.640625 C 27.695312 -111.867188 33.273438 -115.804688 39.828125 -118.453125 C 46.378906 -121.097656 53.617188 -122.421875 61.546875 -122.421875 C 69.484375 -122.421875 76.726562 -121.097656 83.28125 -118.453125 C 89.832031 -115.804688 95.40625 -111.867188 100 -106.640625 C 104.601562 -101.410156 108.164062 -94.914062 110.6875 -87.15625 C 113.21875 -79.394531 114.484375 -70.398438 114.484375 -60.171875 C 114.484375 -49.941406 113.21875 -40.945312 110.6875 -33.1875 C 108.164062 -25.425781 104.601562 -18.929688 100 -13.703125 C 95.40625 -8.472656 89.832031 -4.535156 83.28125 -1.890625 C 76.726562 0.742188 69.484375 2.0625 61.546875 2.0625 Z M 61.546875 -21.203125 C 69.484375 -21.203125 75.664062 -23.785156 80.09375 -28.953125 C 84.519531 -34.128906 86.734375 -41.546875 86.734375 -51.203125 L 86.734375 -69.140625 C 86.734375 -78.796875 84.519531 -86.207031 80.09375 -91.375 C 75.664062 -96.550781 69.484375 -99.140625 61.546875 -99.140625 C 53.617188 -99.140625 47.441406 -96.550781 43.015625 -91.375 C 38.585938 -86.207031 36.375 -78.796875 36.375 -69.140625 L 36.375 -51.203125 C 36.375 -41.546875 38.585938 -34.128906 43.015625 -28.953125 C 47.441406 -23.785156 53.617188 -21.203125 61.546875 -21.203125 Z M 61.546875 -21.203125 "/>
      </g>
    </g>
  </g>
  <g fill="#ff914d" fill-opacity="1">
    <g transform="translate(671.616636, 212.175719)">
      <g>
        <path d="M 13.28125 0 L 13.28125 -120.34375 L 93.109375 -120.34375 L 93.109375 -97.078125 L 39.484375 -97.078125 L 39.484375 -72.421875 L 85.171875 -72.421875 L 85.171875 -49.3125 L 39.484375 -49.3125 L 39.484375 0 Z M 13.28125 0 "/>
      </g>
    </g>
  </g>
  <g fill="#ff914d" fill-opacity="1">
    <g transform="translate(772.473558, 212.175719)">
      <g>
        <path d="M 42.765625 0 L 42.765625 -47.078125 L 1.546875 -120.34375 L 30.859375 -120.34375 L 56.734375 -72.421875 L 57.078125 -72.421875 L 81.90625 -120.34375 L 110.34375 -120.34375 L 69.140625 -47.25 L 69.140625 0 Z M 42.765625 0 "/>
      </g>
    </g>
  </g>
  <path fill="#ff914d" d="M 167.691406 172.464844 L 165.722656 166.914062 C 164.648438 163.875 161.25 161.367188 158.207031 161.367188 L 151.226562 161.367188 C 146.035156 146.871094 139.773438 129.332031 137.804688 125.21875 C 134.941406 118.773438 125.8125 115.910156 120.800781 114.480469 C 120.800781 114.480469 112.390625 111.257812 84.292969 111.257812 C 56.195312 111.257812 47.960938 114.480469 47.960938 114.480469 C 42.058594 116.449219 33.824219 119.3125 30.601562 125.394531 C 28.992188 128.4375 22.550781 146.335938 17.359375 161.367188 L 10.558594 161.367188 C 7.515625 161.367188 4.117188 163.875 3.042969 166.914062 L 1.074219 172.464844 C 0 175.507812 1.609375 178.011719 4.652344 178.011719 L 11.632812 178.011719 C 10.738281 180.515625 10.199219 181.949219 10.199219 181.949219 C 9.664062 182.84375 9.304688 186.960938 9.304688 188.214844 L 9.304688 238.859375 C 9.304688 242.082031 11.992188 244.765625 15.210938 244.765625 L 36.6875 244.765625 C 39.910156 244.765625 42.59375 242.082031 42.59375 238.859375 L 42.59375 228.121094 L 126.171875 228.121094 L 126.171875 238.859375 C 126.171875 242.082031 128.855469 244.765625 132.078125 244.765625 L 153.730469 244.765625 C 156.953125 244.765625 159.636719 242.082031 159.636719 238.859375 L 159.636719 188.214844 C 159.636719 187.140625 159.28125 182.84375 158.742188 181.949219 C 158.742188 181.949219 158.207031 180.515625 157.3125 178.011719 L 164.113281 178.011719 C 166.976562 178.011719 168.585938 175.507812 167.691406 172.464844 Z M 42.59375 203.605469 L 35.433594 198.773438 C 22.191406 197.699219 20.582031 202.351562 17.71875 197.339844 L 17.71875 191.253906 C 17.71875 185.347656 21.117188 185.171875 24.875 185.171875 C 28.457031 185.171875 35.613281 188.210938 40.445312 190.359375 C 45.636719 192.6875 49.394531 190.71875 51.363281 198.414062 C 51.183594 201.992188 49.214844 203.605469 42.59375 203.605469 Z M 30.066406 163.695312 C 34.539062 145.441406 42.058594 132.734375 43.128906 129.691406 C 43.847656 127.542969 42.058594 123.605469 84.472656 123.605469 C 126.886719 123.605469 124.558594 129.332031 124.738281 129.511719 C 126.707031 133.628906 134.582031 147.050781 138.699219 163.695312 C 138.699219 163.695312 122.769531 165.84375 86.441406 165.84375 C 50.109375 165.84375 30.066406 163.695312 30.066406 163.695312 Z M 117.582031 198.414062 C 125.992188 188.035156 123.308594 192.6875 128.496094 190.359375 C 133.152344 188.210938 140.488281 185.171875 144.066406 185.171875 C 147.824219 185.171875 151.226562 185.347656 151.226562 191.253906 L 151.226562 197.339844 C 148.542969 202.171875 146.214844 197.878906 132.792969 199.128906 L 126.171875 203.425781 C 119.550781 203.605469 115.253906 201.097656 117.582031 198.414062 Z M 117.582031 198.414062 " fill-opacity="1" fill-rule="nonzero"/>
  <g clip-path="url(#0aede09146)">
    <path fill="#ff914d" d="M 135.261719 92.859375 C 136.667969 95.722656 136.679688 102.464844 136.679688 102.464844 C 136.515625 102.578125 136.351562 102.664062 136.1875 102.742188 L 135.160156 98.449219 C 135.160156 98.449219 134.871094 101.296875 134.945312 102.957031 C 132.957031 103.617188 131.792969 102.589844 131.792969 102.589844 C 131.246094 97.269531 131.828125 94.28125 132.3125 92.796875 C 131.957031 92.429688 131.742188 91.949219 131.726562 91.402344 C 131.703125 90.515625 132.246094 89.730469 133.019531 89.414062 L 132.894531 79.699219 L 119.960938 85.550781 C 118.984375 85.996094 117.867188 85.308594 117.832031 84.234375 L 117.679688 80.394531 C 117.652344 79.902344 117.398438 79.457031 116.996094 79.191406 C 96.738281 65.839844 80.140625 66.863281 69.804688 70.070312 C 58.542969 73.566406 52.183594 80.191406 51.917969 80.46875 L 51.902344 80.484375 C 51.625 80.773438 51.484375 81.15625 51.484375 81.546875 L 51.550781 85.84375 C 51.5625 86.929688 50.472656 87.679688 49.457031 87.261719 L 32.773438 80.421875 C 31.546875 79.914062 31.519531 78.191406 32.722656 77.644531 L 82.953125 55.03125 C 83.335938 54.867188 83.753906 54.855469 84.132812 55.007812 L 135.78125 75.605469 C 137.023438 76.101562 137.0625 77.835938 135.84375 78.394531 L 134.121094 79.164062 L 134.25 89.324219 C 135.175781 89.515625 135.871094 90.328125 135.894531 91.300781 C 135.921875 91.910156 135.667969 92.46875 135.261719 92.859375 Z M 54.03125 82.496094 C 53.957031 82.5625 53.90625 82.664062 53.90625 82.777344 L 53.90625 106.074219 C 53.90625 106.351562 54.210938 106.53125 54.449219 106.378906 C 58.199219 104.085938 81.28125 91.492188 115.019531 106.492188 C 115.257812 106.59375 115.523438 106.429688 115.523438 106.175781 L 115.523438 81.761719 C 115.523438 81.648438 115.472656 81.535156 115.375 81.472656 C 112.980469 79.773438 82.15625 58.769531 54.03125 82.496094 Z M 54.03125 82.496094 " fill-opacity="1" fill-rule="nonzero"/>
  </g>
</svg>
